<?xml version="1.0" encoding="UTF-8" standalone="no"?>
<!DOCTYPE svg PUBLIC "-//W3C//DTD SVG 1.1//EN" "http://www.w3.org/Graphics/SVG/1.1/DTD/svg11.dtd">
<svg width="1000.00" height="1000.00" viewBox="0.00 0.00 1000.00 1000.00" xmlns="http://www.w3.org/2000/svg" xmlns:xlink="http://www.w3.org/1999/xlink">
<g stroke-linecap="round" transform="translate(-1256.00, -716.00)" id="Layer_3_Copy">
<path d="M1644.26,802.89 C1644.66,802.64 1644.97,802.33 1645.19,801.97 C1645.52,801.41 1647.56,796.88 1648.29,795.24 C1639.28,808.29 1628.25,826.60 1619.16,839.78 C1602.98,863.10 1565.17,917.43 1543.55,948.43 C1525.32,974.49 1486.32,1030.10 1465.54,1059.64 C1449.82,1081.92 1415.19,1131.30 1396.28,1158.39 C1387.21,1171.53 1369.26,1197.77 1360.38,1210.87 C1343.97,1235.93 1329.33,1260.33 1328.84,1261.16 C1328.84,1261.16 1330.85,1259.01 1330.85,1259.01" fill="none" stroke="rgb(32, 36, 82)" stroke-width="53.92" stroke-opacity="1.00" stroke-linejoin="round"/>
<path d="M1641.25,807.84 C1641.23,807.85 1641.22,807.95 1641.22,808.14 C1641.12,812.89 1637.35,845.09 1636.17,862.73 C1634.73,895.26 1632.41,958.85 1631.52,989.91 C1630.71,1022.18 1628.92,1088.50 1627.93,1122.56 C1627.12,1152.49 1625.62,1211.51 1624.93,1240.60 C1624.10,1272.88 1622.91,1336.72 1622.55,1368.27 C1622.65,1377.57 1623.06,1393.64 1623.35,1400.41 C1623.62,1406.90 1624.04,1420.81 1624.19,1428.24 C1624.21,1428.95 1624.22,1429.65 1624.23,1430.35" fill="none" stroke="rgb(32, 36, 82)" stroke-width="53.92" stroke-opacity="1.00" stroke-linejoin="round"/>
<path d="M1845.47,977.20 C1845.47,977.35 1845.50,976.91 1845.52,976.76 C1845.61,975.45 1845.70,974.14 1845.80,972.83 C1845.90,976.60 1842.79,1015.69 1841.42,1033.37 C1840.55,1048.66 1839.20,1077.83 1838.72,1091.70 C1838.08,1123.84 1836.97,1189.98 1836.50,1223.98 C1835.96,1254.68 1835.01,1313.09 1835.18,1345.49 C1835.83,1378.63 1837.38,1444.84 1838.28,1477.91 C1839.46,1507.96 1842.60,1575.08 1844.36,1596.20 C1845.18,1604.49 1846.83,1620.06 1847.65,1627.34 C1848.80,1635.55 1849.78,1649.51 1849.59,1650.46 C1849.53,1650.74 1849.31,1651.10 1848.94,1651.53" fill="none" stroke="rgb(32, 36, 82)" stroke-width="53.92" stroke-opacity="1.00" stroke-linejoin="round"/>
<path d="M1379.74,1201.15 C1381.61,1200.79 1382.72,1200.54 1384.48,1200.03 C1394.12,1197.24 1425.29,1185.84 1439.11,1180.61 C1454.28,1174.95 1483.34,1164.98 1497.75,1160.21 C1512.51,1155.69 1542.53,1146.84 1557.78,1142.51 C1588.93,1134.41 1648.50,1119.53 1676.93,1112.76 C1691.66,1109.50 1721.93,1103.03 1737.46,1099.82 C1752.67,1096.94 1782.53,1091.54 1798.81,1089.04 C1813.43,1087.09 1846.54,1082.93 1856.20,1082.04 C1871.28,1080.95 1902.31,1079.37 1917.92,1078.68 C1929.94,1078.42 1961.17,1079.23 1975.97,1080.12 C1993.97,1081.62 2015.62,1084.54 2032.91,1088.23 C2038.29,1089.45 2056.67,1094.33 2062.22,1096.05 C2070.80,1098.85 2081.29,1103.16 2091.56,1107.92 C2097.78,1110.86 2108.16,1116.89 2116.20,1122.01 C2122.17,1125.93 2132.82,1135.28 2138.07,1140.98 C2142.97,1146.38 2152.19,1158.75 2154.72,1164.39 C2157.54,1170.77 2160.83,1183.29 2161.59,1191.14 C2161.97,1195.31 2161.80,1201.18 2161.17,1204.93 C2159.98,1211.74 2155.45,1226.00 2151.27,1233.29 C2146.94,1240.79 2138.49,1251.11 2132.96,1256.21 C2128.17,1260.59 2113.90,1271.55 2110.93,1273.66 C2103.87,1278.61 2068.60,1298.60 2058.37,1303.73 C2048.78,1308.31 2016.62,1321.94 2001.94,1327.97 C1987.68,1333.48 1961.52,1342.58 1946.59,1347.31 C1931.56,1351.85 1901.03,1360.66 1885.94,1364.47 C1877.02,1366.54 1864.04,1368.74 1854.24,1369.48 C1852.76,1369.59 1850.21,1369.78 1849.13,1369.86" fill="none" stroke="rgb(32, 36, 82)" stroke-width="53.92" stroke-opacity="1.00" stroke-linejoin="round"/>
<path d="M1854.80,1370.61 C1854.80,1370.61 1843.36,1371.48 1843.36,1371.48 C1843.36,1371.48 1855.11,1369.76 1855.11,1369.76 C1855.11,1369.76 1843.06,1370.61 1843.06,1370.61 C1843.06,1370.61 1857.98,1368.92 1857.98,1368.92 C1857.98,1368.92 1841.39,1370.29 1841.39,1370.29 C1841.39,1370.29 1846.32,1371.53 1846.32,1371.53 C1842.46,1371.06 1838.61,1370.31 1839.33,1370.63 C1841.49,1371.51 1846.64,1371.80 1847.64,1371.86 C1847.64,1371.86 1841.32,1371.36 1841.32,1371.36 C1842.61,1371.61 1843.31,1371.72 1843.42,1371.68 C1843.74,1371.56 1841.45,1370.58 1839.78,1370.04 C1839.78,1370.04 1842.11,1370.50 1842.11,1370.50" fill="none" stroke="rgb(32, 36, 82)" stroke-width="53.92" stroke-opacity="1.00" stroke-linejoin="round"/>
</g>
</svg>
